<svg xmlns="http://www.w3.org/2000/svg" viewBox="0 0 249.02 117.39"><g id="Warstwa_2" data-name="Warstwa 2"><g id="Warstwa_1-2" data-name="Warstwa 1"><path d="M0,52.9a374.75,374.75,0,0,1,50-4.22V70.13A329.28,329.28,0,0,1,0,65.3Z"/><path d="M57.67,117.27c8.86-15.83,13.46-42.71,13.46-58.64S66.59,16,57.78.11A117.08,117.08,0,0,1,77.66,1c12,18.69,15.92,40.54,15.92,57.65s-4,39.1-16,57.79A117.7,117.7,0,0,1,57.67,117.27Z"/><path d="M101.75,58.64c0-16.57,3.9-37.77,15.91-49,6.63,1.76,13.25,3.55,19.88,5.13-8.8,9.8-13.35,30.79-13.35,43.85s4.61,34.2,13.47,43.93c-6.65,1.59-13.29,3.37-19.94,5.15C105.71,96.52,101.75,75.21,101.75,58.64Z"/><path d="M145.82,58.78c0-23.81,22.39-32.37,51.6-37.66,14.6-2.65,27.5-6.88,36.75-1.58C243.42,24.25,249,38.48,249,58.85c0,20.21-5.6,34.32-14.86,39-9.25,5.23-22.17,1-36.8-1.64C168.15,90.91,145.82,82.41,145.82,58.78Zm78-.14c.14-17.63-13.11-20.45-26.35-19.32-13.25,1.69-26.49,7.32-26.35,19.33-.14,12,13.11,17.57,26.35,19.24C210.67,79,223.91,76.19,223.77,58.64Z"/></g></g></svg>